<mxfile host="app.diagrams.net" agent="Mozilla/5.0 (Windows NT 10.0; Win64; x64) AppleWebKit/537.36 (KHTML, like Gecko) Chrome/131.0.0.0 Safari/537.36" version="26.0.4">
  <diagram id="C5RBs43oDa-KdzZeNtuy" name="Page-1">
    <mxGraphModel dx="1290" dy="530" grid="1" gridSize="10" guides="1" tooltips="1" connect="1" arrows="1" fold="1" page="1" pageScale="1" pageWidth="827" pageHeight="1169" math="0" shadow="0">
      <root>
        <mxCell id="WIyWlLk6GJQsqaUBKTNV-0" />
        <mxCell id="WIyWlLk6GJQsqaUBKTNV-1" parent="WIyWlLk6GJQsqaUBKTNV-0" />
        <mxCell id="TrhdKHEcwYvvVuGY11DH-23" style="edgeStyle=orthogonalEdgeStyle;rounded=0;orthogonalLoop=1;jettySize=auto;html=1;exitX=0.5;exitY=1;exitDx=0;exitDy=0;exitPerimeter=0;" edge="1" parent="WIyWlLk6GJQsqaUBKTNV-1" source="TrhdKHEcwYvvVuGY11DH-20" target="TrhdKHEcwYvvVuGY11DH-21">
          <mxGeometry relative="1" as="geometry" />
        </mxCell>
        <mxCell id="TrhdKHEcwYvvVuGY11DH-20" value="START" style="strokeWidth=2;html=1;shape=mxgraph.flowchart.start_1;whiteSpace=wrap;" vertex="1" parent="WIyWlLk6GJQsqaUBKTNV-1">
          <mxGeometry x="320" y="50" width="100" height="60" as="geometry" />
        </mxCell>
        <mxCell id="TrhdKHEcwYvvVuGY11DH-24" style="edgeStyle=orthogonalEdgeStyle;rounded=0;orthogonalLoop=1;jettySize=auto;html=1;exitX=0.5;exitY=1;exitDx=0;exitDy=0;entryX=0.5;entryY=0;entryDx=0;entryDy=0;" edge="1" parent="WIyWlLk6GJQsqaUBKTNV-1" source="TrhdKHEcwYvvVuGY11DH-21" target="TrhdKHEcwYvvVuGY11DH-22">
          <mxGeometry relative="1" as="geometry" />
        </mxCell>
        <mxCell id="TrhdKHEcwYvvVuGY11DH-21" value="i = 64" style="rounded=1;whiteSpace=wrap;html=1;absoluteArcSize=1;arcSize=14;strokeWidth=2;" vertex="1" parent="WIyWlLk6GJQsqaUBKTNV-1">
          <mxGeometry x="265" y="170" width="210" height="50" as="geometry" />
        </mxCell>
        <mxCell id="TrhdKHEcwYvvVuGY11DH-27" style="edgeStyle=orthogonalEdgeStyle;rounded=0;orthogonalLoop=1;jettySize=auto;html=1;exitX=0.5;exitY=1;exitDx=0;exitDy=0;" edge="1" parent="WIyWlLk6GJQsqaUBKTNV-1" source="TrhdKHEcwYvvVuGY11DH-22" target="TrhdKHEcwYvvVuGY11DH-26">
          <mxGeometry relative="1" as="geometry" />
        </mxCell>
        <mxCell id="TrhdKHEcwYvvVuGY11DH-22" value="i = i + 1" style="rounded=1;whiteSpace=wrap;html=1;absoluteArcSize=1;arcSize=14;strokeWidth=2;" vertex="1" parent="WIyWlLk6GJQsqaUBKTNV-1">
          <mxGeometry x="260" y="260" width="220" height="50" as="geometry" />
        </mxCell>
        <mxCell id="TrhdKHEcwYvvVuGY11DH-26" value="PRINT Char(i)" style="shape=parallelogram;html=1;strokeWidth=2;perimeter=parallelogramPerimeter;whiteSpace=wrap;rounded=1;arcSize=12;size=0.23;" vertex="1" parent="WIyWlLk6GJQsqaUBKTNV-1">
          <mxGeometry x="247" y="360" width="246" height="60" as="geometry" />
        </mxCell>
        <mxCell id="TrhdKHEcwYvvVuGY11DH-30" style="edgeStyle=orthogonalEdgeStyle;rounded=0;orthogonalLoop=1;jettySize=auto;html=1;exitX=0.5;exitY=0;exitDx=0;exitDy=0;exitPerimeter=0;entryX=1;entryY=0.5;entryDx=0;entryDy=0;" edge="1" parent="WIyWlLk6GJQsqaUBKTNV-1" source="TrhdKHEcwYvvVuGY11DH-28" target="TrhdKHEcwYvvVuGY11DH-22">
          <mxGeometry relative="1" as="geometry" />
        </mxCell>
        <mxCell id="TrhdKHEcwYvvVuGY11DH-34" value="NO" style="edgeLabel;html=1;align=center;verticalAlign=middle;resizable=0;points=[];" vertex="1" connectable="0" parent="TrhdKHEcwYvvVuGY11DH-30">
          <mxGeometry x="-0.7553" y="3" relative="1" as="geometry">
            <mxPoint as="offset" />
          </mxGeometry>
        </mxCell>
        <mxCell id="TrhdKHEcwYvvVuGY11DH-32" style="edgeStyle=orthogonalEdgeStyle;rounded=0;orthogonalLoop=1;jettySize=auto;html=1;exitX=0.5;exitY=1;exitDx=0;exitDy=0;exitPerimeter=0;" edge="1" parent="WIyWlLk6GJQsqaUBKTNV-1" source="TrhdKHEcwYvvVuGY11DH-28" target="TrhdKHEcwYvvVuGY11DH-31">
          <mxGeometry relative="1" as="geometry" />
        </mxCell>
        <mxCell id="TrhdKHEcwYvvVuGY11DH-33" value="YES" style="edgeLabel;html=1;align=center;verticalAlign=middle;resizable=0;points=[];" vertex="1" connectable="0" parent="TrhdKHEcwYvvVuGY11DH-32">
          <mxGeometry x="-0.248" y="-1" relative="1" as="geometry">
            <mxPoint as="offset" />
          </mxGeometry>
        </mxCell>
        <mxCell id="TrhdKHEcwYvvVuGY11DH-28" value="i = 90" style="strokeWidth=2;html=1;shape=mxgraph.flowchart.decision;whiteSpace=wrap;" vertex="1" parent="WIyWlLk6GJQsqaUBKTNV-1">
          <mxGeometry x="630" y="340" width="100" height="100" as="geometry" />
        </mxCell>
        <mxCell id="TrhdKHEcwYvvVuGY11DH-29" style="edgeStyle=orthogonalEdgeStyle;rounded=0;orthogonalLoop=1;jettySize=auto;html=1;exitX=1;exitY=0.5;exitDx=0;exitDy=0;entryX=0;entryY=0.5;entryDx=0;entryDy=0;entryPerimeter=0;" edge="1" parent="WIyWlLk6GJQsqaUBKTNV-1" source="TrhdKHEcwYvvVuGY11DH-26" target="TrhdKHEcwYvvVuGY11DH-28">
          <mxGeometry relative="1" as="geometry" />
        </mxCell>
        <mxCell id="TrhdKHEcwYvvVuGY11DH-31" value="END" style="strokeWidth=2;html=1;shape=mxgraph.flowchart.terminator;whiteSpace=wrap;" vertex="1" parent="WIyWlLk6GJQsqaUBKTNV-1">
          <mxGeometry x="630" y="490" width="100" height="60" as="geometry" />
        </mxCell>
      </root>
    </mxGraphModel>
  </diagram>
</mxfile>
